<?xml version="1.0" standalone="no"?>
<!DOCTYPE svg PUBLIC "-//W3C//DTD SVG 20010904//EN"
 "http://www.w3.org/TR/2001/REC-SVG-20010904/DTD/svg10.dtd">
<svg version="1.0" xmlns="http://www.w3.org/2000/svg"
 width="30" height="32" viewBox="0 0 1280.000000 853.000000"
 preserveAspectRatio="xMidYMid meet">

<g transform="translate(0.000000,853.000000) scale(0.100000,-0.100000)"
fill="#000000" stroke="none">
<path d="M4427 5323 c-13 -21 -38 -64 -56 -95 l-32 -58 -68 0 c-38 0 -82 -3
-99 -6 -29 -6 -33 -2 -84 71 -29 43 -61 87 -70 99 l-16 21 -69 -23 c-37 -13
-89 -33 -115 -44 l-47 -20 5 -47 c3 -25 10 -75 15 -111 l11 -65 -33 -25 c-18
-14 -54 -45 -81 -69 l-48 -44 -93 37 c-50 20 -98 36 -105 36 -13 0 -83 -103
-121 -177 l-21 -42 66 -76 66 -76 -21 -77 c-11 -42 -23 -89 -26 -104 -3 -17
-12 -28 -22 -28 -9 0 -57 -10 -105 -22 l-88 -21 0 -129 c0 -100 3 -130 14
-134 7 -3 53 -13 101 -23 l88 -18 34 -107 34 -107 -67 -80 -67 -80 46 -68 c26
-37 62 -85 80 -106 l34 -39 93 42 93 42 39 -35 c21 -20 64 -52 94 -71 52 -33
54 -36 49 -72 -12 -96 -14 -181 -5 -187 19 -12 214 -63 224 -59 6 3 34 44 61
91 l50 87 114 0 114 1 48 -80 c26 -44 50 -84 51 -89 5 -11 147 28 200 55 l41
21 -7 86 c-4 48 -9 96 -12 108 -4 16 6 27 53 56 32 20 69 48 82 62 14 14 31
26 38 26 8 0 49 -16 91 -35 42 -20 81 -34 88 -31 7 3 42 50 79 105 l67 101
-72 80 c-79 88 -67 83 -213 80 l-87 -2 -93 -92 c-101 -101 -163 -141 -277
-180 -162 -54 -329 -42 -486 35 -71 35 -105 60 -175 129 -72 71 -93 100 -132
180 -73 150 -93 294 -63 453 50 260 250 473 501 532 72 17 223 19 297 4 103
-21 213 -83 308 -175 l87 -84 129 0 129 0 63 72 c34 39 62 77 62 85 0 23 -124
213 -139 213 -4 0 -47 -18 -96 -40 -50 -22 -95 -40 -101 -40 -6 0 -19 9 -30
21 -10 11 -49 41 -87 66 l-69 46 6 41 c3 22 8 71 12 107 l6 66 -102 36 c-56
21 -110 37 -121 37 -11 0 -28 -15 -42 -37z"/>
<path d="M6115 4928 c-33 -18 -76 -61 -86 -85 -8 -23 -9 -23 -256 -23 -137 -1
-266 -4 -288 -9 -34 -6 -58 -25 -149 -119 l-109 -112 -236 1 -236 0 -38 49
c-110 146 -293 228 -482 217 -245 -14 -438 -161 -528 -401 -28 -74 -30 -91
-30 -206 0 -110 3 -134 26 -198 72 -203 224 -350 422 -408 210 -61 473 34 610
221 l47 65 218 0 219 0 21 -27 c12 -16 64 -71 116 -124 l94 -96 283 5 283 5
13 -32 c31 -74 127 -117 203 -92 40 13 92 64 107 104 50 131 -85 266 -216 216
-34 -13 -82 -56 -93 -85 -7 -18 -20 -22 -86 -27 -42 -4 -163 -7 -269 -7 l-192
0 -117 121 -117 120 -262 1 c-171 0 -262 -3 -265 -10 -2 -6 -26 -40 -53 -76
-165 -218 -443 -271 -668 -127 -110 71 -207 214 -231 340 -52 279 102 537 369
615 63 18 188 21 246 5 59 -16 153 -65 201 -105 23 -18 62 -61 86 -94 l43 -59
270 -1 270 -1 115 120 115 120 262 6 262 7 20 -40 c67 -131 237 -137 301 -12
58 114 -24 250 -150 250 -25 -1 -54 -6 -65 -12z m122 -100 c33 -31 32 -90 -3
-117 -47 -37 -102 -24 -124 29 -14 34 0 83 29 100 28 16 74 11 98 -12z m0
-1050 c44 -41 22 -120 -37 -133 -53 -12 -108 41 -96 91 16 62 88 84 133 42z"/>
<path d="M4165 4666 c-225 -55 -371 -306 -310 -535 64 -243 288 -386 511 -327
138 36 246 138 309 289 l15 37 -48 0 -49 0 -24 -52 c-32 -69 -97 -134 -167
-166 -81 -38 -193 -38 -274 0 -69 32 -127 90 -164 165 -26 52 -29 68 -29 158
0 88 3 107 27 157 32 70 102 142 166 170 67 31 208 32 273 2 63 -29 125 -88
161 -151 29 -51 31 -53 74 -53 54 0 55 8 8 86 -109 182 -291 266 -479 220z"/>
<path d="M4216 4390 c-116 -35 -145 -210 -46 -280 39 -28 109 -37 150 -20 34
14 90 73 90 95 0 13 28 15 175 15 l175 0 0 29 c0 62 3 61 -180 61 l-168 0 -20
34 c-20 34 -92 77 -128 75 -10 0 -32 -5 -48 -9z m77 -91 c30 -16 37 -28 37
-65 0 -56 -60 -88 -103 -54 -35 27 -41 53 -23 89 22 41 49 50 89 30z"/>
<path d="M4890 4350 c0 -19 7 -20 95 -20 52 0 95 -3 94 -7 0 -5 -41 -38 -92
-74 -79 -56 -92 -70 -95 -97 l-3 -32 125 0 c119 0 126 1 126 20 0 19 -7 20
-95 20 -52 0 -95 4 -95 8 0 5 43 40 95 78 80 58 95 73 95 96 l0 28 -125 0
c-118 0 -125 -1 -125 -20z"/>
<path d="M5975 4360 c-4 -7 -3 -16 3 -22 14 -14 45 -2 40 15 -6 16 -34 21 -43
7z"/>
<path d="M6730 4351 c0 -15 6 -21 21 -21 14 0 19 5 17 17 -5 26 -38 29 -38 4z"/>
<path d="M7667 4360 c-21 -4 -43 -12 -50 -19 -7 -7 -13 -52 -15 -111 -4 -96
-3 -100 17 -100 20 0 21 5 21 94 0 105 0 106 76 106 37 0 44 3 44 20 0 22 -21
24 -93 10z"/>
<path d="M9313 4340 c-18 -10 -39 -33 -48 -50 l-16 -30 -89 0 -90 0 0 -35 0
-35 93 0 93 0 11 -29 c32 -87 182 -92 233 -9 23 37 26 101 7 138 -32 64 -130
89 -194 50z m112 -75 c14 -13 25 -31 25 -40 0 -20 -44 -65 -63 -65 -27 0 -59
35 -59 65 0 30 32 65 59 65 7 0 25 -11 38 -25z"/>
<path d="M5347 4304 c-13 -14 5 -24 42 -24 46 0 61 -14 61 -60 0 -52 -14 -60
-98 -60 -70 0 -73 1 -70 23 3 20 10 22 78 27 61 4 75 8 78 23 3 15 -6 17 -77
17 -92 0 -121 -17 -121 -70 0 -41 23 -50 124 -50 105 0 116 8 116 90 0 74 -14
90 -79 90 -26 0 -51 -3 -54 -6z"/>
<path d="M5588 4299 c-25 -14 -27 -169 -3 -169 12 0 15 14 15 63 0 36 5 68 12
75 7 7 31 12 55 12 l43 0 0 -75 c0 -69 2 -75 21 -75 19 0 20 5 18 73 l-2 72
49 0 49 0 3 -72 c3 -65 5 -73 22 -73 18 0 20 7 20 68 0 109 -5 112 -158 112
-70 0 -135 -5 -144 -11z"/>
<path d="M5987 4303 c-4 -3 -7 -44 -7 -90 0 -67 3 -83 15 -83 12 0 15 17 15
90 0 83 -5 101 -23 83z"/>
<path d="M6117 4292 c-12 -13 -17 -36 -17 -74 0 -77 14 -88 118 -88 101 0 112
9 112 90 0 82 -11 90 -114 90 -68 0 -86 -3 -99 -18z m167 -28 c18 -18 21 -56
6 -85 -9 -16 -22 -19 -73 -19 -73 0 -87 10 -87 60 0 20 5 41 12 48 18 18 123
15 142 -4z"/>
<path d="M6436 4297 c-15 -11 -20 -31 -24 -90 -4 -73 -4 -77 17 -77 19 0 21 5
21 63 0 36 5 68 12 75 16 16 130 16 146 0 7 -7 12 -41 12 -81 0 -50 3 -68 13
-65 8 3 13 32 15 84 2 65 0 81 -14 91 -24 18 -174 17 -198 0z"/>
<path d="M6743 4303 c-9 -3 -13 -31 -13 -89 0 -77 2 -84 20 -84 18 0 20 7 20
84 0 85 -4 97 -27 89z"/>
<path d="M6866 4288 c-9 -12 -16 -43 -16 -68 0 -25 7 -56 16 -68 14 -20 23
-22 115 -22 80 0 99 3 99 15 0 11 -19 15 -92 17 l-93 3 -3 49 c-2 32 1 52 10
57 7 5 50 9 96 9 66 0 82 3 82 15 0 12 -18 15 -99 15 -92 0 -101 -2 -115 -22z"/>
<path d="M7171 4291 c-25 -25 -27 -54 -5 -72 9 -7 52 -15 100 -17 72 -4 84 -7
82 -21 -3 -13 -20 -17 -96 -19 -73 -2 -92 -6 -92 -17 0 -12 19 -15 98 -15 109
0 122 6 122 57 0 43 -21 53 -109 53 -39 0 -73 5 -76 11 -10 15 -2 20 45 26 52
7 47 27 -8 31 -31 2 -46 -2 -61 -17z"/>
<path d="M7936 4288 c-9 -12 -16 -43 -16 -68 0 -25 7 -56 16 -68 14 -20 24
-22 103 -22 54 0 91 4 99 12 7 7 12 40 12 78 0 38 -5 71 -12 78 -8 8 -45 12
-99 12 -79 0 -89 -2 -103 -22z m173 -22 c7 -8 11 -34 9 -58 l-3 -43 -75 0 -75
0 -3 43 c-4 60 9 72 78 72 38 0 62 -5 69 -14z"/>
<path d="M8246 4288 c-11 -15 -16 -45 -16 -90 0 -61 2 -68 20 -68 18 0 20 7
20 64 0 65 8 81 44 87 39 8 29 29 -13 29 -30 0 -44 -6 -55 -22z"/>
<path d="M8447 4292 c-12 -13 -17 -37 -17 -75 0 -74 18 -87 117 -87 42 0 73
-4 73 -10 0 -5 -18 -10 -40 -10 -33 0 -40 -3 -40 -20 0 -17 7 -20 43 -20 66 0
77 18 77 128 0 110 -2 112 -118 112 -64 0 -82 -4 -95 -18z m164 -22 c15 -8 19
-22 19 -61 l0 -50 -77 3 -78 3 -3 44 c-2 24 -1 50 2 57 6 17 107 19 137 4z"/>
<path d="M8768 4299 c-27 -15 -26 -144 1 -159 30 -16 101 -13 101 4 0 10 -14
16 -42 18 l-43 3 -3 49 c-2 32 1 52 10 57 20 13 132 11 146 -3 29 -29 13 -38
-68 -38 -64 0 -80 -3 -80 -15 0 -12 17 -15 95 -15 l95 0 0 45 c0 34 -5 47 -19
55 -25 13 -171 13 -193 -1z"/>
<path d="M7650 4240 c0 -19 6 -20 101 -20 90 0 100 2 97 18 -3 14 -17 17 -101
20 -92 3 -97 2 -97 -18z"/>
</g>
</svg>
